/*
 * This ESP32 code is created by esp32io.com
 *
 * This ESP32 code is released in the public domain
 *
 * For more detail (instruction and wiring diagram), visit https://esp32io.com/tutorials/esp32-piezo-buzzer
 */

#include "pitches.h"
#define buzzer  32 // ESP32 pin GIOP18 connected to piezo buzzer

int tempo = 60;

const int melody[] PROGMEM = {

  // Fur Elise - Ludwig van Beethovem
  // Score available at https://musescore.com/user/28149610/scores/5281944

  //starts from 1 ending on 9
  NOTE_E5, 16, NOTE_DS5, 16, //1
  NOTE_E5, 16, NOTE_DS5, 16, NOTE_E5, 16, NOTE_B4, 16, NOTE_D5, 16, NOTE_C5, 16,
  NOTE_A4, -8, NOTE_C4, 16, NOTE_E4, 16, NOTE_A4, 16,
  NOTE_B4, -8, NOTE_E4, 16, NOTE_GS4, 16, NOTE_B4, 16,
  NOTE_C5, 8,  REST, 16, NOTE_E4, 16, NOTE_E5, 16,  NOTE_DS5, 16,
  
  NOTE_E5, 16, NOTE_DS5, 16, NOTE_E5, 16, NOTE_B4, 16, NOTE_D5, 16, NOTE_C5, 16,//6
  NOTE_A4, -8, NOTE_C4, 16, NOTE_E4, 16, NOTE_A4, 16, 
  NOTE_B4, -8, NOTE_E4, 16, NOTE_C5, 16, NOTE_B4, 16, 
  NOTE_A4 , 4, REST, 8, //9 - 1st ending

  //repaets from 1 ending on 10
  NOTE_E5, 16, NOTE_DS5, 16, //1
  NOTE_E5, 16, NOTE_DS5, 16, NOTE_E5, 16, NOTE_B4, 16, NOTE_D5, 16, NOTE_C5, 16,
  NOTE_A4, -8, NOTE_C4, 16, NOTE_E4, 16, NOTE_A4, 16,
  NOTE_B4, -8, NOTE_E4, 16, NOTE_GS4, 16, NOTE_B4, 16,
  NOTE_C5, 8,  REST, 16, NOTE_E4, 16, NOTE_E5, 16,  NOTE_DS5, 16,
  
  NOTE_E5, 16, NOTE_DS5, 16, NOTE_E5, 16, NOTE_B4, 16, NOTE_D5, 16, NOTE_C5, 16,//6
  NOTE_A4, -8, NOTE_C4, 16, NOTE_E4, 16, NOTE_A4, 16, 
  NOTE_B4, -8, NOTE_E4, 16, NOTE_C5, 16, NOTE_B4, 16, 
  NOTE_A4, 8, REST, 16, NOTE_B4, 16, NOTE_C5, 16, NOTE_D5, 16, //10 - 2nd ending
  //continues from 11
  NOTE_E5, -8, NOTE_G4, 16, NOTE_F5, 16, NOTE_E5, 16, 
  NOTE_D5, -8, NOTE_F4, 16, NOTE_E5, 16, NOTE_D5, 16, //12
  
  NOTE_C5, -8, NOTE_E4, 16, NOTE_D5, 16, NOTE_C5, 16, //13
  NOTE_B4, 8, REST, 16, NOTE_E4, 16, NOTE_E5, 16, REST, 16,
  REST, 16, NOTE_E5, 16, NOTE_E6, 16, REST, 16, REST, 16, NOTE_DS5, 16,
  NOTE_E5, 16, REST, 16, REST, 16, NOTE_DS5, 16, NOTE_E5, 16, NOTE_DS5, 16,
  NOTE_E5, 16, NOTE_DS5, 16, NOTE_E5, 16, NOTE_B4, 16, NOTE_D5, 16, NOTE_C5, 16,
  NOTE_A4, 8, REST, 16, NOTE_C4, 16, NOTE_E4, 16, NOTE_A4, 16,
  
  NOTE_B4, 8, REST, 16, NOTE_E4, 16, NOTE_GS4, 16, NOTE_B4, 16, //19
  NOTE_C5, 8, REST, 16, NOTE_E4, 16, NOTE_E5, 16,  NOTE_DS5, 16,
  NOTE_E5, 16, NOTE_DS5, 16, NOTE_E5, 16, NOTE_B4, 16, NOTE_D5, 16, NOTE_C5, 16,
  NOTE_A4, 8, REST, 16, NOTE_C4, 16, NOTE_E4, 16, NOTE_A4, 16,
  NOTE_B4, 8, REST, 16, NOTE_E4, 16, NOTE_C5, 16, NOTE_B4, 16,
  NOTE_A4, 8, REST, 16, NOTE_B4, 16, NOTE_C5, 16, NOTE_D5, 16, //24 (1st ending)
  
  //repeats from 11
  NOTE_E5, -8, NOTE_G4, 16, NOTE_F5, 16, NOTE_E5, 16, 
  NOTE_D5, -8, NOTE_F4, 16, NOTE_E5, 16, NOTE_D5, 16, //12
  
  NOTE_C5, -8, NOTE_E4, 16, NOTE_D5, 16, NOTE_C5, 16, //13
  NOTE_B4, 8, REST, 16, NOTE_E4, 16, NOTE_E5, 16, REST, 16,
  REST, 16, NOTE_E5, 16, NOTE_E6, 16, REST, 16, REST, 16, NOTE_DS5, 16,
  NOTE_E5, 16, REST, 16, REST, 16, NOTE_DS5, 16, NOTE_E5, 16, NOTE_DS5, 16,
  NOTE_E5, 16, NOTE_DS5, 16, NOTE_E5, 16, NOTE_B4, 16, NOTE_D5, 16, NOTE_C5, 16,
  NOTE_A4, 8, REST, 16, NOTE_C4, 16, NOTE_E4, 16, NOTE_A4, 16,
  
  NOTE_B4, 8, REST, 16, NOTE_E4, 16, NOTE_GS4, 16, NOTE_B4, 16, //19
  NOTE_C5, 8, REST, 16, NOTE_E4, 16, NOTE_E5, 16,  NOTE_DS5, 16,
  NOTE_E5, 16, NOTE_DS5, 16, NOTE_E5, 16, NOTE_B4, 16, NOTE_D5, 16, NOTE_C5, 16,
  NOTE_A4, 8, REST, 16, NOTE_C4, 16, NOTE_E4, 16, NOTE_A4, 16,
  NOTE_B4, 8, REST, 16, NOTE_E4, 16, NOTE_C5, 16, NOTE_B4, 16,
  NOTE_A4, 8, REST, 16, NOTE_C5, 16, NOTE_C5, 16, NOTE_C5, 16, //25 - 2nd ending

  //continues from 26
  NOTE_C5 , 4, NOTE_F5, -16, NOTE_E5, 32, //26
  NOTE_E5, 8, NOTE_D5, 8, NOTE_AS5, -16, NOTE_A5, 32,
  NOTE_A5, 16, NOTE_G5, 16, NOTE_F5, 16, NOTE_E5, 16, NOTE_D5, 16, NOTE_C5, 16,
  NOTE_AS4, 8, NOTE_A4, 8, NOTE_A4, 32, NOTE_G4, 32, NOTE_A4, 32, NOTE_B4, 32,
  NOTE_C5 , 4, NOTE_D5, 16, NOTE_DS5, 16,
  NOTE_E5, -8, NOTE_E5, 16, NOTE_F5, 16, NOTE_A4, 16,
  NOTE_C5 , 4,  NOTE_D5, -16, NOTE_B4, 32,
  
  
  NOTE_C5, 32, NOTE_G5, 32, NOTE_G4, 32, NOTE_G5, 32, NOTE_A4, 32, NOTE_G5, 32, NOTE_B4, 32, NOTE_G5, 32, NOTE_C5, 32, NOTE_G5, 32, NOTE_D5, 32, NOTE_G5, 32, //33
  NOTE_E5, 32, NOTE_G5, 32, NOTE_C6, 32, NOTE_B5, 32, NOTE_A5, 32, NOTE_G5, 32, NOTE_F5, 32, NOTE_E5, 32, NOTE_D5, 32, NOTE_G5, 32, NOTE_F5, 32, NOTE_D5, 32,
  NOTE_C5, 32, NOTE_G5, 32, NOTE_G4, 32, NOTE_G5, 32, NOTE_A4, 32, NOTE_G5, 32, NOTE_B4, 32, NOTE_G5, 32, NOTE_C5, 32, NOTE_G5, 32, NOTE_D5, 32, NOTE_G5, 32,

  NOTE_E5, 32, NOTE_G5, 32, NOTE_C6, 32, NOTE_B5, 32, NOTE_A5, 32, NOTE_G5, 32, NOTE_F5, 32, NOTE_E5, 32, NOTE_D5, 32, NOTE_G5, 32, NOTE_F5, 32, NOTE_D5, 32, //36
  NOTE_E5, 32, NOTE_F5, 32, NOTE_E5, 32, NOTE_DS5, 32, NOTE_E5, 32, NOTE_B4, 32, NOTE_E5, 32, NOTE_DS5, 32, NOTE_E5, 32, NOTE_B4, 32, NOTE_E5, 32, NOTE_DS5, 32,
  NOTE_E5, -8, NOTE_B4, 16, NOTE_E5, 16, NOTE_DS5, 16,
  NOTE_E5, -8, NOTE_B4, 16, NOTE_E5, 16, REST, 16,

  REST, 16, NOTE_DS5, 16, NOTE_E5, 16, REST, 16, REST, 16, NOTE_DS5, 16, //40
  NOTE_E5, 16, NOTE_DS5, 16, NOTE_E5, 16, NOTE_B4, 16, NOTE_D5, 16, NOTE_C5, 16,
  NOTE_A4, 8, REST, 16, NOTE_C4, 16, NOTE_E4, 16, NOTE_A4, 16,
  NOTE_B4, 8, REST, 16, NOTE_E4, 16, NOTE_GS4, 16, NOTE_B4, 16,
  NOTE_C5, 8, REST, 16, NOTE_E4, 16, NOTE_E5, 16, NOTE_DS5, 16,
  NOTE_E5, 16, NOTE_DS5, 16, NOTE_E5, 16, NOTE_B4, 16, NOTE_D5, 16, NOTE_C5, 16,

  NOTE_A4, 8, REST, 16, NOTE_C4, 16, NOTE_E4, 16, NOTE_A4, 16, //46
  NOTE_B4, 8, REST, 16, NOTE_E4, 16, NOTE_C5, 16, NOTE_B4, 16,
  NOTE_A4, 8, REST, 16, NOTE_B4, 16, NOTE_C5, 16, NOTE_D5, 16,
  NOTE_E5, -8, NOTE_G4, 16, NOTE_F5, 16, NOTE_E5, 16,
  NOTE_D5, -8, NOTE_F4, 16, NOTE_E5, 16, NOTE_D5, 16,
  NOTE_C5, -8, NOTE_E4, 16, NOTE_D5, 16, NOTE_C5, 16,
  NOTE_B4, 8, REST, 16, NOTE_E4, 16, NOTE_E5, 16, REST, 16,
  REST, 16, NOTE_E5, 16, NOTE_E6, 16, REST, 16, REST, 16, NOTE_DS5, 16,

  NOTE_E5, 16, REST, 16, REST, 16, NOTE_DS5, 16, NOTE_E5, 16, NOTE_D5, 16, //54
  NOTE_E5, 16, NOTE_DS5, 16, NOTE_E5, 16, NOTE_B4, 16, NOTE_D5, 16, NOTE_C5, 16,
  NOTE_A4, 8, REST, 16, NOTE_C4, 16, NOTE_E4, 16, NOTE_A4, 16,
  NOTE_B4, 8, REST, 16, NOTE_E4, 16, NOTE_GS4, 16, NOTE_B4, 16,
  NOTE_C5, 8, REST, 16, NOTE_E4, 16, NOTE_E5, 16, NOTE_DS5, 16,
  NOTE_E5, 16, NOTE_DS5, 16, NOTE_E5, 16, NOTE_B4, 16, NOTE_D5, 16, NOTE_C5, 16,
  
  NOTE_A4, 8, REST, 16, NOTE_C4, 16, NOTE_E4, 16, NOTE_A4, 16, //60
  NOTE_B4, 8, REST, 16, NOTE_E4, 16, NOTE_C5, 16, NOTE_B4, 16,
  NOTE_A4, 8, REST, 16, REST, 16, REST, 8, 
  NOTE_CS5 , -4, 
  NOTE_D5 , 4, NOTE_E5, 16, NOTE_F5, 16,
  NOTE_F5 , 4, NOTE_F5, 8, 
  NOTE_E5 , -4,
  NOTE_D5 , 4, NOTE_C5, 16, NOTE_B4, 16,
  NOTE_A4 , 4, NOTE_A4, 8,
  NOTE_A4, 8, NOTE_C5, 8, NOTE_B4, 8,
  NOTE_A4 , -4,
  NOTE_CS5 , -4,

  NOTE_D5 , 4, NOTE_E5, 16, NOTE_F5, 16, //72
  NOTE_F5 , 4, NOTE_F5, 8,
  NOTE_F5 , -4,
  NOTE_DS5 , 4, NOTE_D5, 16, NOTE_C5, 16,
  NOTE_AS4 , 4, NOTE_A4, 8,
  NOTE_GS4 , 4, NOTE_G4, 8,
  NOTE_A4 , -4,
  NOTE_B4 , 4, REST, 8,
  NOTE_A3, -32, NOTE_C4, -32, NOTE_E4, -32, NOTE_A4, -32, NOTE_C5, -32, NOTE_E5, -32, NOTE_D5, -32, NOTE_C5, -32, NOTE_B4, -32,

  NOTE_A4, -32, NOTE_C5, -32, NOTE_E5, -32, NOTE_A5, -32, NOTE_C6, -32, NOTE_E6, -32, NOTE_D6, -32, NOTE_C6, -32, NOTE_B5, -32, //80
  NOTE_A4, -32, NOTE_C5, -32, NOTE_E5, -32, NOTE_A5, -32, NOTE_C6, -32, NOTE_E6, -32, NOTE_D6, -32, NOTE_C6, -32, NOTE_B5, -32,
  NOTE_AS5, -32, NOTE_A5, -32, NOTE_GS5, -32, NOTE_G5, -32, NOTE_FS5, -32, NOTE_F5, -32, NOTE_E5, -32, NOTE_DS5, -32, NOTE_D5, -32,

  NOTE_CS5, -32, NOTE_C5, -32, NOTE_B4, -32, NOTE_AS4, -32, NOTE_A4, -32, NOTE_GS4, -32, NOTE_G4, -32, NOTE_FS4, -32, NOTE_F4, -32, //84
  NOTE_E4, 16, NOTE_DS5, 16, NOTE_E5, 16, NOTE_B4, 16, NOTE_D5, 16, NOTE_C5, 16,
  NOTE_A4, -8, NOTE_C4, 16, NOTE_E4, 16, NOTE_A4, 16,
  NOTE_B4, -8, NOTE_E4, 16, NOTE_GS4, 16, NOTE_B4, 16,

  NOTE_C5, 8, REST, 16, NOTE_E4, 16, NOTE_E5, 16, NOTE_DS5, 16, //88
  NOTE_E5, 16, NOTE_DS5, 16, NOTE_E5, 16, NOTE_B4, 16, NOTE_D5, 16, NOTE_C5, 16, 
  NOTE_A4, -8, NOTE_C4, 16, NOTE_E4, 16, NOTE_A4, 16, 
  NOTE_B4, -8, NOTE_E4, 16, NOTE_C5, 16, NOTE_B4, 16, 
  NOTE_A4, -8, REST, -8,
  REST, -8, NOTE_G4, 16, NOTE_F5, 16, NOTE_E5, 16,
  NOTE_D5 , 4, REST, 8,
  REST, -8, NOTE_E4, 16, NOTE_D5, 16, NOTE_C5, 16,
  
  NOTE_B4, -8, NOTE_E4, 16, NOTE_E5, 8, //96
  NOTE_E5, 8, NOTE_E6, -8, NOTE_DS5, 16,
  NOTE_E5, 16, REST, 16, REST, 16, NOTE_DS5, 16, NOTE_E5, 16, NOTE_DS5, 16,
  NOTE_E5, 16, NOTE_DS5, 16, NOTE_E5, 16, NOTE_B4, 16, NOTE_D5, 16, NOTE_C5, 16,
  NOTE_A4, -8, NOTE_C4, 16, NOTE_E4, 16, NOTE_A4, 16,
  NOTE_B4, -8, NOTE_E4, 16, NOTE_GS4, 16, NOTE_B4, 16,

  NOTE_C5, 8, REST, 16, NOTE_E4, 16, NOTE_E5, 16, NOTE_DS5, 16, //102
  NOTE_E5, 16, NOTE_DS5, 16, NOTE_E5, 16, NOTE_B4, 16, NOTE_D5, 16, NOTE_C5, 16,
  NOTE_A4, -8, NOTE_C4, 16, NOTE_E4, 16, NOTE_A4, 16,
  NOTE_B4, -8, NOTE_E4, 16, NOTE_C5, 16, NOTE_B4, 16,
  NOTE_A4 , -4,
};

// sizeof gives the number of bytes, each int value is composed of two bytes (16 bits)
// there are two values per note (pitch and duration), so for each note there are four bytes
int notes = sizeof(melody) / sizeof(melody[0]) / 2;

// this calculates the duration of a whole note in ms
int wholenote = (60000 * 4) / tempo;

int divider = 0, noteDuration = 0;

void setup() {
  // iterate over the notes of the melody.
  // Remember, the array is twice the number of notes (notes + durations)
  for (int thisNote = 0; thisNote < notes * 2; thisNote = thisNote + 2) {

    // calculates the duration of each note
    divider = pgm_read_word_near(melody+thisNote + 1);
    if (divider > 0) {
      // regular note, just proceed
      noteDuration = (wholenote) / divider;
    } else if (divider < 0) {
      // dotted notes are represented with negative durations!!
      noteDuration = (wholenote) / abs(divider);
      noteDuration *= 1.5; // increases the duration in half for dotted notes
    }

    // we only play the note for 90% of the duration, leaving 10% as a pause
    tone(buzzer, pgm_read_word_near(melody+thisNote), noteDuration * 0.9);

    // Wait for the specief duration before playing the next note.
    delay(noteDuration);

    // stop the waveform generation before the next note.
    noTone(buzzer);
  }
}

void loop() {
}
